<svg xmlns="http://www.w3.org/2000/svg" width="920" height="2916" viewBox="0 0 920 2916" font-family="Segoe UI, Arial, sans-serif"><rect width="920" height="2916" fill="#ffffff"/><text x="24" y="40" font-size="24" font-weight="700" fill="#1e3a8a">RetailPOS — Cloud Firestore Schema</text><text x="24" y="66" font-size="14" fill="#6b7280">8 collections, normalized by reference IDs</text><line x1="46" y1="115" x2="46" y2="2565" stroke="#9ca3af" stroke-width="2"/><line x1="46" y1="165" x2="96" y2="165" stroke="#9ca3af" stroke-width="2"/><line x1="46" y1="515" x2="96" y2="515" stroke="#9ca3af" stroke-width="2"/><line x1="46" y1="765" x2="96" y2="765" stroke="#9ca3af" stroke-width="2"/><line x1="46" y1="1165" x2="96" y2="1165" stroke="#9ca3af" stroke-width="2"/><line x1="46" y1="1565" x2="96" y2="1565" stroke="#9ca3af" stroke-width="2"/><line x1="46" y1="1915" x2="96" y2="1915" stroke="#9ca3af" stroke-width="2"/><line x1="46" y1="2215" x2="96" y2="2215" stroke="#9ca3af" stroke-width="2"/><line x1="46" y1="2565" x2="96" y2="2565" stroke="#9ca3af" stroke-width="2"/><line x1="118" y1="165" x2="118" y2="215" stroke="#9ca3af" stroke-width="2"/><line x1="118" y1="215" x2="188" y2="215" stroke="#9ca3af" stroke-width="2"/><line x1="210" y1="215" x2="210" y2="465" stroke="#9ca3af" stroke-width="2"/><line x1="210" y1="265" x2="288" y2="265" stroke="#9ca3af" stroke-width="2"/><line x1="210" y1="315" x2="288" y2="315" stroke="#9ca3af" stroke-width="2"/><line x1="210" y1="365" x2="288" y2="365" stroke="#9ca3af" stroke-width="2"/><line x1="210" y1="415" x2="288" y2="415" stroke="#9ca3af" stroke-width="2"/><line x1="210" y1="465" x2="288" y2="465" stroke="#9ca3af" stroke-width="2"/><line x1="118" y1="515" x2="118" y2="565" stroke="#9ca3af" stroke-width="2"/><line x1="118" y1="565" x2="188" y2="565" stroke="#9ca3af" stroke-width="2"/><line x1="210" y1="565" x2="210" y2="715" stroke="#9ca3af" stroke-width="2"/><line x1="210" y1="615" x2="288" y2="615" stroke="#9ca3af" stroke-width="2"/><line x1="210" y1="665" x2="288" y2="665" stroke="#9ca3af" stroke-width="2"/><line x1="210" y1="715" x2="288" y2="715" stroke="#9ca3af" stroke-width="2"/><line x1="118" y1="765" x2="118" y2="815" stroke="#9ca3af" stroke-width="2"/><line x1="118" y1="815" x2="188" y2="815" stroke="#9ca3af" stroke-width="2"/><line x1="210" y1="815" x2="210" y2="1115" stroke="#9ca3af" stroke-width="2"/><line x1="210" y1="865" x2="288" y2="865" stroke="#9ca3af" stroke-width="2"/><line x1="210" y1="915" x2="288" y2="915" stroke="#9ca3af" stroke-width="2"/><line x1="210" y1="965" x2="288" y2="965" stroke="#9ca3af" stroke-width="2"/><line x1="210" y1="1015" x2="288" y2="1015" stroke="#9ca3af" stroke-width="2"/><line x1="210" y1="1065" x2="288" y2="1065" stroke="#9ca3af" stroke-width="2"/><line x1="210" y1="1115" x2="288" y2="1115" stroke="#9ca3af" stroke-width="2"/><line x1="118" y1="1165" x2="118" y2="1215" stroke="#9ca3af" stroke-width="2"/><line x1="118" y1="1215" x2="188" y2="1215" stroke="#9ca3af" stroke-width="2"/><line x1="210" y1="1215" x2="210" y2="1515" stroke="#9ca3af" stroke-width="2"/><line x1="210" y1="1265" x2="288" y2="1265" stroke="#9ca3af" stroke-width="2"/><line x1="210" y1="1315" x2="288" y2="1315" stroke="#9ca3af" stroke-width="2"/><line x1="210" y1="1365" x2="288" y2="1365" stroke="#9ca3af" stroke-width="2"/><line x1="210" y1="1415" x2="288" y2="1415" stroke="#9ca3af" stroke-width="2"/><line x1="210" y1="1465" x2="288" y2="1465" stroke="#9ca3af" stroke-width="2"/><line x1="210" y1="1515" x2="288" y2="1515" stroke="#9ca3af" stroke-width="2"/><line x1="118" y1="1565" x2="118" y2="1615" stroke="#9ca3af" stroke-width="2"/><line x1="118" y1="1615" x2="188" y2="1615" stroke="#9ca3af" stroke-width="2"/><line x1="210" y1="1615" x2="210" y2="1865" stroke="#9ca3af" stroke-width="2"/><line x1="210" y1="1665" x2="288" y2="1665" stroke="#9ca3af" stroke-width="2"/><line x1="210" y1="1715" x2="288" y2="1715" stroke="#9ca3af" stroke-width="2"/><line x1="210" y1="1765" x2="288" y2="1765" stroke="#9ca3af" stroke-width="2"/><line x1="210" y1="1815" x2="288" y2="1815" stroke="#9ca3af" stroke-width="2"/><line x1="210" y1="1865" x2="288" y2="1865" stroke="#9ca3af" stroke-width="2"/><line x1="118" y1="1915" x2="118" y2="1965" stroke="#9ca3af" stroke-width="2"/><line x1="118" y1="1965" x2="188" y2="1965" stroke="#9ca3af" stroke-width="2"/><line x1="210" y1="1965" x2="210" y2="2165" stroke="#9ca3af" stroke-width="2"/><line x1="210" y1="2015" x2="288" y2="2015" stroke="#9ca3af" stroke-width="2"/><line x1="210" y1="2065" x2="288" y2="2065" stroke="#9ca3af" stroke-width="2"/><line x1="210" y1="2115" x2="288" y2="2115" stroke="#9ca3af" stroke-width="2"/><line x1="210" y1="2165" x2="288" y2="2165" stroke="#9ca3af" stroke-width="2"/><line x1="118" y1="2215" x2="118" y2="2265" stroke="#9ca3af" stroke-width="2"/><line x1="118" y1="2265" x2="188" y2="2265" stroke="#9ca3af" stroke-width="2"/><line x1="210" y1="2265" x2="210" y2="2515" stroke="#9ca3af" stroke-width="2"/><line x1="210" y1="2315" x2="288" y2="2315" stroke="#9ca3af" stroke-width="2"/><line x1="210" y1="2365" x2="288" y2="2365" stroke="#9ca3af" stroke-width="2"/><line x1="210" y1="2415" x2="288" y2="2415" stroke="#9ca3af" stroke-width="2"/><line x1="210" y1="2465" x2="288" y2="2465" stroke="#9ca3af" stroke-width="2"/><line x1="210" y1="2515" x2="288" y2="2515" stroke="#9ca3af" stroke-width="2"/><line x1="118" y1="2565" x2="118" y2="2615" stroke="#9ca3af" stroke-width="2"/><line x1="118" y1="2615" x2="188" y2="2615" stroke="#9ca3af" stroke-width="2"/><line x1="210" y1="2615" x2="210" y2="2865" stroke="#9ca3af" stroke-width="2"/><line x1="210" y1="2665" x2="288" y2="2665" stroke="#9ca3af" stroke-width="2"/><line x1="210" y1="2715" x2="288" y2="2715" stroke="#9ca3af" stroke-width="2"/><line x1="210" y1="2765" x2="288" y2="2765" stroke="#9ca3af" stroke-width="2"/><line x1="210" y1="2815" x2="288" y2="2815" stroke="#9ca3af" stroke-width="2"/><line x1="210" y1="2865" x2="288" y2="2865" stroke="#9ca3af" stroke-width="2"/><rect x="24" y="96" width="132" height="38" rx="8" fill="#dbeafe" stroke="#3b82f6" stroke-width="2"/><text x="38" y="121" font-size="16">🏠</text><text x="64" y="120" font-size="16" font-weight="700" fill="#1e3a8a"><tspan>Root</tspan></text><rect x="96" y="146" width="360" height="38" rx="8" fill="#dcfce7" stroke="#22c55e" stroke-width="2"/><text x="110" y="171" font-size="16">📁</text><text x="136" y="170" font-size="16" font-weight="700" fill="#15803d"><tspan>users</tspan><tspan font-size="13" font-weight="400" fill="#6b7280"> (collection)</tspan></text><rect x="188" y="196" width="320" height="38" rx="8" fill="#ede9fe" stroke="#8b5cf6" stroke-width="2"/><text x="202" y="221" font-size="16">📄</text><text x="228" y="220" font-size="16" font-weight="700" fill="#5b21b6"><tspan>userId</tspan><tspan font-size="13" font-weight="400" fill="#6b7280"> (document)</tspan></text><rect x="288" y="246" width="114.80000000000001" height="38" rx="7" fill="#fef3c7" stroke="#f59e0b" stroke-width="1.5"/><text x="301" y="270" font-size="14.5" font-weight="500" fill="#92400e">name: string</text><rect x="288" y="296" width="122.2" height="38" rx="7" fill="#fef3c7" stroke="#f59e0b" stroke-width="1.5"/><text x="301" y="320" font-size="14.5" font-weight="500" fill="#92400e">email: string</text><rect x="288" y="346" width="114.80000000000001" height="38" rx="7" fill="#fef3c7" stroke="#f59e0b" stroke-width="1.5"/><text x="301" y="370" font-size="14.5" font-weight="500" fill="#92400e">role: string</text><rect x="288" y="396" width="151.8" height="38" rx="7" fill="#fef3c7" stroke="#f59e0b" stroke-width="1.5"/><text x="301" y="420" font-size="14.5" font-weight="500" fill="#92400e">isActive: boolean</text><rect x="288" y="446" width="174" height="38" rx="7" fill="#fef3c7" stroke="#f59e0b" stroke-width="1.5"/><text x="301" y="470" font-size="14.5" font-weight="500" fill="#92400e">createdAt: timestamp</text><rect x="96" y="496" width="360" height="38" rx="8" fill="#dcfce7" stroke="#22c55e" stroke-width="2"/><text x="110" y="521" font-size="16">📁</text><text x="136" y="520" font-size="16" font-weight="700" fill="#15803d"><tspan>categories</tspan><tspan font-size="13" font-weight="400" fill="#6b7280"> (collection)</tspan></text><rect x="188" y="546" width="320" height="38" rx="8" fill="#ede9fe" stroke="#8b5cf6" stroke-width="2"/><text x="202" y="571" font-size="16">📄</text><text x="228" y="570" font-size="16" font-weight="700" fill="#5b21b6"><tspan>categoryId</tspan><tspan font-size="13" font-weight="400" fill="#6b7280"> (document)</tspan></text><rect x="288" y="596" width="114.80000000000001" height="38" rx="7" fill="#fef3c7" stroke="#f59e0b" stroke-width="1.5"/><text x="301" y="620" font-size="14.5" font-weight="500" fill="#92400e">name: string</text><rect x="288" y="646" width="166.6" height="38" rx="7" fill="#fef3c7" stroke="#f59e0b" stroke-width="1.5"/><text x="301" y="670" font-size="14.5" font-weight="500" fill="#92400e">description: string</text><rect x="288" y="696" width="174" height="38" rx="7" fill="#fef3c7" stroke="#f59e0b" stroke-width="1.5"/><text x="301" y="720" font-size="14.5" font-weight="500" fill="#92400e">createdAt: timestamp</text><rect x="96" y="746" width="360" height="38" rx="8" fill="#dcfce7" stroke="#22c55e" stroke-width="2"/><text x="110" y="771" font-size="16">📁</text><text x="136" y="770" font-size="16" font-weight="700" fill="#15803d"><tspan>products</tspan><tspan font-size="13" font-weight="400" fill="#6b7280"> (collection)</tspan></text><rect x="188" y="796" width="320" height="38" rx="8" fill="#ede9fe" stroke="#8b5cf6" stroke-width="2"/><text x="202" y="821" font-size="16">📄</text><text x="228" y="820" font-size="16" font-weight="700" fill="#5b21b6"><tspan>productId</tspan><tspan font-size="13" font-weight="400" fill="#6b7280"> (document)</tspan></text><rect x="288" y="846" width="114.80000000000001" height="38" rx="7" fill="#fef3c7" stroke="#f59e0b" stroke-width="1.5"/><text x="301" y="870" font-size="14.5" font-weight="500" fill="#92400e">name: string</text><rect x="288" y="896" width="122.2" height="38" rx="7" fill="#fef3c7" stroke="#f59e0b" stroke-width="1.5"/><text x="301" y="920" font-size="14.5" font-weight="500" fill="#92400e">price: number</text><rect x="288" y="946" width="122.2" height="38" rx="7" fill="#fef3c7" stroke="#f59e0b" stroke-width="1.5"/><text x="301" y="970" font-size="14.5" font-weight="500" fill="#92400e">stock: number</text><rect x="288" y="996" width="137" height="38" rx="7" fill="#fef3c7" stroke="#f59e0b" stroke-width="1.5"/><text x="301" y="1020" font-size="14.5" font-weight="500" fill="#92400e">barcode: string</text><rect x="288" y="1046" width="144.4" height="38" rx="7" fill="#fef3c7" stroke="#f59e0b" stroke-width="1.5"/><text x="301" y="1070" font-size="14.5" font-weight="500" fill="#92400e">imageUrl: string</text><rect x="288" y="1096" width="440.40000000000003" height="38" rx="7" fill="#fef3c7" stroke="#f59e0b" stroke-width="1.5"/><text x="301" y="1120" font-size="14.5" fill="#92400e"><tspan font-weight="500">categoryId: string </tspan><tspan font-size="12.5" font-style="italic" fill="#b45309">(reference to categories/categoryId)</tspan></text><rect x="96" y="1146" width="360" height="38" rx="8" fill="#dcfce7" stroke="#22c55e" stroke-width="2"/><text x="110" y="1171" font-size="16">📁</text><text x="136" y="1170" font-size="16" font-weight="700" fill="#15803d"><tspan>transactions</tspan><tspan font-size="13" font-weight="400" fill="#6b7280"> (collection)</tspan></text><rect x="188" y="1196" width="320" height="38" rx="8" fill="#ede9fe" stroke="#8b5cf6" stroke-width="2"/><text x="202" y="1221" font-size="16">📄</text><text x="228" y="1220" font-size="16" font-weight="700" fill="#5b21b6"><tspan>transactionId</tspan><tspan font-size="13" font-weight="400" fill="#6b7280"> (document)</tspan></text><rect x="288" y="1246" width="129.60000000000002" height="38" rx="7" fill="#fef3c7" stroke="#f59e0b" stroke-width="1.5"/><text x="301" y="1270" font-size="14.5" font-weight="500" fill="#92400e">status: string</text><rect x="288" y="1296" width="144.4" height="38" rx="7" fill="#fef3c7" stroke="#f59e0b" stroke-width="1.5"/><text x="301" y="1320" font-size="14.5" font-weight="500" fill="#92400e">subtotal: number</text><rect x="288" y="1346" width="122.2" height="38" rx="7" fill="#fef3c7" stroke="#f59e0b" stroke-width="1.5"/><text x="301" y="1370" font-size="14.5" font-weight="500" fill="#92400e">total: number</text><rect x="288" y="1396" width="129.60000000000002" height="38" rx="7" fill="#fef3c7" stroke="#f59e0b" stroke-width="1.5"/><text x="301" y="1420" font-size="14.5" font-weight="500" fill="#92400e">change: number</text><rect x="288" y="1446" width="174" height="38" rx="7" fill="#fef3c7" stroke="#f59e0b" stroke-width="1.5"/><text x="301" y="1470" font-size="14.5" font-weight="500" fill="#92400e">createdAt: timestamp</text><rect x="288" y="1496" width="366.40000000000003" height="38" rx="7" fill="#fef3c7" stroke="#f59e0b" stroke-width="1.5"/><text x="301" y="1520" font-size="14.5" fill="#92400e"><tspan font-weight="500">cashierId: string </tspan><tspan font-size="12.5" font-style="italic" fill="#b45309">(reference to users/userId)</tspan></text><rect x="96" y="1546" width="360" height="38" rx="8" fill="#dcfce7" stroke="#22c55e" stroke-width="2"/><text x="110" y="1571" font-size="16">📁</text><text x="136" y="1570" font-size="16" font-weight="700" fill="#15803d"><tspan>transaction_items</tspan><tspan font-size="13" font-weight="400" fill="#6b7280"> (collection)</tspan></text><rect x="188" y="1596" width="320" height="38" rx="8" fill="#ede9fe" stroke="#8b5cf6" stroke-width="2"/><text x="202" y="1621" font-size="16">📄</text><text x="228" y="1620" font-size="16" font-weight="700" fill="#5b21b6"><tspan>itemId</tspan><tspan font-size="13" font-weight="400" fill="#6b7280"> (document)</tspan></text><rect x="288" y="1646" width="122.2" height="38" rx="7" fill="#fef3c7" stroke="#f59e0b" stroke-width="1.5"/><text x="301" y="1670" font-size="14.5" font-weight="500" fill="#92400e">price: number</text><rect x="288" y="1696" width="144.4" height="38" rx="7" fill="#fef3c7" stroke="#f59e0b" stroke-width="1.5"/><text x="301" y="1720" font-size="14.5" font-weight="500" fill="#92400e">quantity: number</text><rect x="288" y="1746" width="144.4" height="38" rx="7" fill="#fef3c7" stroke="#f59e0b" stroke-width="1.5"/><text x="301" y="1770" font-size="14.5" font-weight="500" fill="#92400e">subtotal: number</text><rect x="288" y="1796" width="499.6" height="38" rx="7" fill="#fef3c7" stroke="#f59e0b" stroke-width="1.5"/><text x="301" y="1820" font-size="14.5" fill="#92400e"><tspan font-weight="500">transactionId: string </tspan><tspan font-size="12.5" font-style="italic" fill="#b45309">(reference to transactions/transactionId)</tspan></text><rect x="288" y="1846" width="410.8" height="38" rx="7" fill="#fef3c7" stroke="#f59e0b" stroke-width="1.5"/><text x="301" y="1870" font-size="14.5" fill="#92400e"><tspan font-weight="500">productId: string </tspan><tspan font-size="12.5" font-style="italic" fill="#b45309">(reference to products/productId)</tspan></text><rect x="96" y="1896" width="360" height="38" rx="8" fill="#dcfce7" stroke="#22c55e" stroke-width="2"/><text x="110" y="1921" font-size="16">📁</text><text x="136" y="1920" font-size="16" font-weight="700" fill="#15803d"><tspan>payments</tspan><tspan font-size="13" font-weight="400" fill="#6b7280"> (collection)</tspan></text><rect x="188" y="1946" width="320" height="38" rx="8" fill="#ede9fe" stroke="#8b5cf6" stroke-width="2"/><text x="202" y="1971" font-size="16">📄</text><text x="228" y="1970" font-size="16" font-weight="700" fill="#5b21b6"><tspan>paymentId</tspan><tspan font-size="13" font-weight="400" fill="#6b7280"> (document)</tspan></text><rect x="288" y="1996" width="129.60000000000002" height="38" rx="7" fill="#fef3c7" stroke="#f59e0b" stroke-width="1.5"/><text x="301" y="2020" font-size="14.5" font-weight="500" fill="#92400e">method: string</text><rect x="288" y="2046" width="129.60000000000002" height="38" rx="7" fill="#fef3c7" stroke="#f59e0b" stroke-width="1.5"/><text x="301" y="2070" font-size="14.5" font-weight="500" fill="#92400e">amount: number</text><rect x="288" y="2096" width="144.4" height="38" rx="7" fill="#fef3c7" stroke="#f59e0b" stroke-width="1.5"/><text x="301" y="2120" font-size="14.5" font-weight="500" fill="#92400e">proofUrl: string</text><rect x="288" y="2146" width="499.6" height="38" rx="7" fill="#fef3c7" stroke="#f59e0b" stroke-width="1.5"/><text x="301" y="2170" font-size="14.5" fill="#92400e"><tspan font-weight="500">transactionId: string </tspan><tspan font-size="12.5" font-style="italic" fill="#b45309">(reference to transactions/transactionId)</tspan></text><rect x="96" y="2196" width="360" height="38" rx="8" fill="#dcfce7" stroke="#22c55e" stroke-width="2"/><text x="110" y="2221" font-size="16">📁</text><text x="136" y="2220" font-size="16" font-weight="700" fill="#15803d"><tspan>inventory_logs</tspan><tspan font-size="13" font-weight="400" fill="#6b7280"> (collection)</tspan></text><rect x="188" y="2246" width="320" height="38" rx="8" fill="#ede9fe" stroke="#8b5cf6" stroke-width="2"/><text x="202" y="2271" font-size="16">📄</text><text x="228" y="2270" font-size="16" font-weight="700" fill="#5b21b6"><tspan>logId</tspan><tspan font-size="13" font-weight="400" fill="#6b7280"> (document)</tspan></text><rect x="288" y="2296" width="114.80000000000001" height="38" rx="7" fill="#fef3c7" stroke="#f59e0b" stroke-width="1.5"/><text x="301" y="2320" font-size="14.5" font-weight="500" fill="#92400e">type: string</text><rect x="288" y="2346" width="144.4" height="38" rx="7" fill="#fef3c7" stroke="#f59e0b" stroke-width="1.5"/><text x="301" y="2370" font-size="14.5" font-weight="500" fill="#92400e">quantity: number</text><rect x="288" y="2396" width="144.4" height="38" rx="7" fill="#fef3c7" stroke="#f59e0b" stroke-width="1.5"/><text x="301" y="2420" font-size="14.5" font-weight="500" fill="#92400e">newStock: number</text><rect x="288" y="2446" width="174" height="38" rx="7" fill="#fef3c7" stroke="#f59e0b" stroke-width="1.5"/><text x="301" y="2470" font-size="14.5" font-weight="500" fill="#92400e">createdAt: timestamp</text><rect x="288" y="2496" width="410.8" height="38" rx="7" fill="#fef3c7" stroke="#f59e0b" stroke-width="1.5"/><text x="301" y="2520" font-size="14.5" fill="#92400e"><tspan font-weight="500">productId: string </tspan><tspan font-size="12.5" font-style="italic" fill="#b45309">(reference to products/productId)</tspan></text><rect x="96" y="2546" width="360" height="38" rx="8" fill="#dcfce7" stroke="#22c55e" stroke-width="2"/><text x="110" y="2571" font-size="16">📁</text><text x="136" y="2570" font-size="16" font-weight="700" fill="#15803d"><tspan>receipts</tspan><tspan font-size="13" font-weight="400" fill="#6b7280"> (collection)</tspan></text><rect x="188" y="2596" width="320" height="38" rx="8" fill="#ede9fe" stroke="#8b5cf6" stroke-width="2"/><text x="202" y="2621" font-size="16">📄</text><text x="228" y="2620" font-size="16" font-weight="700" fill="#5b21b6"><tspan>receiptId</tspan><tspan font-size="13" font-weight="400" fill="#6b7280"> (document)</tspan></text><rect x="288" y="2646" width="114.80000000000001" height="38" rx="7" fill="#fef3c7" stroke="#f59e0b" stroke-width="1.5"/><text x="301" y="2670" font-size="14.5" font-weight="500" fill="#92400e">items: array</text><rect x="288" y="2696" width="137" height="38" rx="7" fill="#fef3c7" stroke="#f59e0b" stroke-width="1.5"/><text x="301" y="2720" font-size="14.5" font-weight="500" fill="#92400e">payments: array</text><rect x="288" y="2746" width="122.2" height="38" rx="7" fill="#fef3c7" stroke="#f59e0b" stroke-width="1.5"/><text x="301" y="2770" font-size="14.5" font-weight="500" fill="#92400e">total: number</text><rect x="288" y="2796" width="174" height="38" rx="7" fill="#fef3c7" stroke="#f59e0b" stroke-width="1.5"/><text x="301" y="2820" font-size="14.5" font-weight="500" fill="#92400e">createdAt: timestamp</text><rect x="288" y="2846" width="499.6" height="38" rx="7" fill="#fef3c7" stroke="#f59e0b" stroke-width="1.5"/><text x="301" y="2870" font-size="14.5" fill="#92400e"><tspan font-weight="500">transactionId: string </tspan><tspan font-size="12.5" font-style="italic" fill="#b45309">(reference to transactions/transactionId)</tspan></text></svg>